<svg width="312" height="253" viewBox="0 0 312 253" fill="none" xmlns="http://www.w3.org/2000/svg">
<g opacity="0.4">
<ellipse cx="26.1304" cy="4.68821" rx="3.01128" ry="3.04392" fill="#F24841"/>
<ellipse cx="50.6511" cy="4.68821" rx="3.01128" ry="3.04392" fill="#F24841"/>
<ellipse cx="3.01128" cy="4.68821" rx="3.01128" ry="3.04392" fill="#F24841"/>
<ellipse cx="26.1304" cy="23.5605" rx="3.01128" ry="3.04392" fill="#F24841"/>
<ellipse cx="50.6511" cy="23.5605" rx="3.01128" ry="3.04392" fill="#F24841"/>
<ellipse cx="3.01128" cy="23.5605" rx="3.01128" ry="3.04392" fill="#F24841"/>
<ellipse cx="26.1304" cy="42.4328" rx="3.01128" ry="3.04392" fill="#F24841"/>
<ellipse cx="50.6511" cy="42.4328" rx="3.01128" ry="3.04392" fill="#F24841"/>
<ellipse cx="3.01128" cy="42.4328" rx="3.01128" ry="3.04392" fill="#F24841"/>
<ellipse cx="26.1304" cy="61.3052" rx="3.01128" ry="3.04392" fill="#F24841"/>
<ellipse cx="50.6511" cy="61.3052" rx="3.01128" ry="3.04392" fill="#F24841"/>
<ellipse cx="3.01128" cy="61.3052" rx="3.01128" ry="3.04392" fill="#F24841"/>
<ellipse cx="26.1304" cy="80.1775" rx="3.01128" ry="3.04392" fill="#F24841"/>
<ellipse cx="50.6511" cy="80.1775" rx="3.01128" ry="3.04392" fill="#F24841"/>
<ellipse cx="3.01128" cy="80.1775" rx="3.01128" ry="3.04392" fill="#F24841"/>
<ellipse cx="26.1304" cy="99.0498" rx="3.01128" ry="3.04392" fill="#F24841"/>
<ellipse cx="50.6511" cy="99.0498" rx="3.01128" ry="3.04392" fill="#F24841"/>
<ellipse cx="75.1716" cy="4.68821" rx="3.01128" ry="3.04392" fill="#F24841"/>
<ellipse cx="75.1716" cy="23.5605" rx="3.01128" ry="3.04392" fill="#F24841"/>
<ellipse cx="75.1716" cy="42.4328" rx="3.01128" ry="3.04392" fill="#F24841"/>
<ellipse cx="75.1716" cy="61.3052" rx="3.01128" ry="3.04392" fill="#F24841"/>
<ellipse cx="75.1716" cy="80.1775" rx="3.01128" ry="3.04392" fill="#F24841"/>
<ellipse cx="75.1716" cy="99.0498" rx="3.01128" ry="3.04392" fill="#F24841"/>
<ellipse cx="3.01128" cy="99.0498" rx="3.01128" ry="3.04392" fill="#F24841"/>
<ellipse cx="98.9913" cy="3.98923" rx="3.01128" ry="3.04392" fill="#F24841"/>
<ellipse cx="98.9913" cy="22.8615" rx="3.01128" ry="3.04392" fill="#F24841"/>
<ellipse cx="98.9913" cy="41.7339" rx="3.01128" ry="3.04392" fill="#F24841"/>
<ellipse cx="98.9913" cy="60.6062" rx="3.01128" ry="3.04392" fill="#F24841"/>
<ellipse cx="98.9913" cy="79.4785" rx="3.01128" ry="3.04392" fill="#F24841"/>
<ellipse cx="98.9913" cy="98.3508" rx="3.01128" ry="3.04392" fill="#F24841"/>
<ellipse cx="123.512" cy="3.98923" rx="3.01128" ry="3.04392" fill="#F24841"/>
<ellipse cx="123.512" cy="22.8615" rx="3.01128" ry="3.04392" fill="#F24841"/>
<ellipse cx="123.512" cy="41.7339" rx="3.01128" ry="3.04392" fill="#F24841"/>
<ellipse cx="123.512" cy="60.6062" rx="3.01128" ry="3.04392" fill="#F24841"/>
<ellipse cx="123.512" cy="79.4785" rx="3.01128" ry="3.04392" fill="#F24841"/>
<ellipse cx="123.512" cy="98.3508" rx="3.01128" ry="3.04392" fill="#F24841"/>
<ellipse cx="26.1307" cy="117.956" rx="3.01128" ry="3.04392" fill="#F24841"/>
<ellipse cx="50.6511" cy="117.956" rx="3.01128" ry="3.04392" fill="#F24841"/>
<ellipse cx="75.1716" cy="117.956" rx="3.01128" ry="3.04392" fill="#F24841"/>
<ellipse cx="3.01128" cy="117.956" rx="3.01128" ry="3.04392" fill="#F24841"/>
<ellipse cx="98.9915" cy="117.257" rx="3.01128" ry="3.04392" fill="#F24841"/>
<ellipse cx="123.512" cy="117.257" rx="3.01128" ry="3.04392" fill="#F24841"/>
<ellipse cx="145.586" cy="3.98923" rx="3.01128" ry="3.04392" fill="#F24841"/>
<ellipse cx="145.586" cy="22.8615" rx="3.01128" ry="3.04392" fill="#F24841"/>
<ellipse cx="145.586" cy="41.7339" rx="3.01128" ry="3.04392" fill="#F24841"/>
<ellipse cx="145.586" cy="60.6062" rx="3.01128" ry="3.04392" fill="#F24841"/>
<ellipse cx="145.586" cy="79.4785" rx="3.01128" ry="3.04392" fill="#F24841"/>
<ellipse cx="145.586" cy="98.3508" rx="3.01128" ry="3.04392" fill="#F24841"/>
<ellipse cx="145.586" cy="117.257" rx="3.01128" ry="3.04392" fill="#F24841"/>
<ellipse cx="188.533" cy="3.7429" rx="3.01128" ry="3.04392" fill="#F24841"/>
<ellipse cx="213.054" cy="3.7429" rx="3.01128" ry="3.04392" fill="#F24841"/>
<ellipse cx="165.414" cy="3.7429" rx="3.01128" ry="3.04392" fill="#F24841"/>
<ellipse cx="188.533" cy="22.6152" rx="3.01128" ry="3.04392" fill="#F24841"/>
<ellipse cx="213.054" cy="22.6152" rx="3.01128" ry="3.04392" fill="#F24841"/>
<ellipse cx="165.414" cy="22.6152" rx="3.01128" ry="3.04392" fill="#F24841"/>
<ellipse cx="188.533" cy="41.4875" rx="3.01128" ry="3.04392" fill="#F24841"/>
<ellipse cx="213.054" cy="41.4875" rx="3.01128" ry="3.04392" fill="#F24841"/>
<ellipse cx="165.414" cy="41.4875" rx="3.01128" ry="3.04392" fill="#F24841"/>
<ellipse cx="188.533" cy="60.3598" rx="3.01128" ry="3.04392" fill="#F24841"/>
<ellipse cx="213.054" cy="60.3598" rx="3.01128" ry="3.04392" fill="#F24841"/>
<ellipse cx="165.414" cy="60.3598" rx="3.01128" ry="3.04392" fill="#F24841"/>
<ellipse cx="188.533" cy="79.2322" rx="3.01128" ry="3.04392" fill="#F24841"/>
<ellipse cx="213.054" cy="79.2322" rx="3.01128" ry="3.04392" fill="#F24841"/>
<ellipse cx="165.414" cy="79.2322" rx="3.01128" ry="3.04392" fill="#F24841"/>
<ellipse cx="188.533" cy="98.1045" rx="3.01128" ry="3.04392" fill="#F24841"/>
<ellipse cx="213.054" cy="98.1045" rx="3.01128" ry="3.04392" fill="#F24841"/>
<ellipse cx="237.574" cy="3.7429" rx="3.01128" ry="3.04392" fill="#F24841"/>
<ellipse cx="237.574" cy="22.6152" rx="3.01128" ry="3.04392" fill="#F24841"/>
<ellipse cx="237.574" cy="41.4875" rx="3.01128" ry="3.04392" fill="#F24841"/>
<ellipse cx="237.574" cy="60.3598" rx="3.01128" ry="3.04392" fill="#F24841"/>
<ellipse cx="237.574" cy="79.2322" rx="3.01128" ry="3.04392" fill="#F24841"/>
<ellipse cx="237.574" cy="98.1045" rx="3.01128" ry="3.04392" fill="#F24841"/>
<ellipse cx="165.414" cy="98.1045" rx="3.01128" ry="3.04392" fill="#F24841"/>
<ellipse cx="261.394" cy="3.04392" rx="3.01128" ry="3.04392" fill="#F24841"/>
<ellipse cx="261.394" cy="21.9162" rx="3.01128" ry="3.04392" fill="#F24841"/>
<ellipse cx="261.394" cy="40.7886" rx="3.01128" ry="3.04392" fill="#F24841"/>
<ellipse cx="261.394" cy="59.6609" rx="3.01128" ry="3.04392" fill="#F24841"/>
<ellipse cx="261.394" cy="78.5332" rx="3.01128" ry="3.04392" fill="#F24841"/>
<ellipse cx="261.394" cy="97.4055" rx="3.01128" ry="3.04392" fill="#F24841"/>
<ellipse cx="285.915" cy="3.04392" rx="3.01128" ry="3.04392" fill="#F24841"/>
<ellipse cx="285.915" cy="21.9162" rx="3.01128" ry="3.04392" fill="#F24841"/>
<ellipse cx="285.915" cy="40.7886" rx="3.01128" ry="3.04392" fill="#F24841"/>
<ellipse cx="285.915" cy="59.6609" rx="3.01128" ry="3.04392" fill="#F24841"/>
<ellipse cx="285.915" cy="78.5332" rx="3.01128" ry="3.04392" fill="#F24841"/>
<ellipse cx="285.915" cy="97.4055" rx="3.01128" ry="3.04392" fill="#F24841"/>
<ellipse cx="188.534" cy="117.011" rx="3.01128" ry="3.04392" fill="#F24841"/>
<ellipse cx="213.054" cy="117.011" rx="3.01128" ry="3.04392" fill="#F24841"/>
<ellipse cx="237.574" cy="117.011" rx="3.01128" ry="3.04392" fill="#F24841"/>
<ellipse cx="165.414" cy="117.011" rx="3.01128" ry="3.04392" fill="#F24841"/>
<ellipse cx="261.394" cy="116.312" rx="3.01128" ry="3.04392" fill="#F24841"/>
<ellipse cx="285.915" cy="116.312" rx="3.01128" ry="3.04392" fill="#F24841"/>
<ellipse cx="307.989" cy="3.04392" rx="3.01128" ry="3.04392" fill="#F24841"/>
<ellipse cx="307.989" cy="21.9162" rx="3.01128" ry="3.04392" fill="#F24841"/>
<ellipse cx="307.989" cy="40.7886" rx="3.01128" ry="3.04392" fill="#F24841"/>
<ellipse cx="307.989" cy="59.6609" rx="3.01128" ry="3.04392" fill="#F24841"/>
<ellipse cx="307.989" cy="78.5332" rx="3.01128" ry="3.04392" fill="#F24841"/>
<ellipse cx="307.989" cy="97.4055" rx="3.01128" ry="3.04392" fill="#F24841"/>
<ellipse cx="307.989" cy="116.312" rx="3.01128" ry="3.04392" fill="#F24841"/>
<ellipse cx="27.1304" cy="136.688" rx="3.01128" ry="3.04392" fill="#F24841"/>
<ellipse cx="51.6511" cy="136.688" rx="3.01128" ry="3.04392" fill="#F24841"/>
<ellipse cx="4.01128" cy="136.688" rx="3.01128" ry="3.04392" fill="#F24841"/>
<ellipse cx="27.1304" cy="155.561" rx="3.01128" ry="3.04392" fill="#F24841"/>
<ellipse cx="51.6511" cy="155.561" rx="3.01128" ry="3.04392" fill="#F24841"/>
<ellipse cx="4.01128" cy="155.561" rx="3.01128" ry="3.04392" fill="#F24841"/>
<ellipse cx="27.1304" cy="174.433" rx="3.01128" ry="3.04392" fill="#F24841"/>
<ellipse cx="51.6511" cy="174.433" rx="3.01128" ry="3.04392" fill="#F24841"/>
<ellipse cx="4.01128" cy="174.433" rx="3.01128" ry="3.04392" fill="#F24841"/>
<ellipse cx="27.1304" cy="193.305" rx="3.01128" ry="3.04392" fill="#F24841"/>
<ellipse cx="51.6511" cy="193.305" rx="3.01128" ry="3.04392" fill="#F24841"/>
<ellipse cx="4.01128" cy="193.305" rx="3.01128" ry="3.04392" fill="#F24841"/>
<ellipse cx="27.1304" cy="212.177" rx="3.01128" ry="3.04392" fill="#F24841"/>
<ellipse cx="51.6511" cy="212.177" rx="3.01128" ry="3.04392" fill="#F24841"/>
<ellipse cx="4.01128" cy="212.177" rx="3.01128" ry="3.04392" fill="#F24841"/>
<ellipse cx="27.1304" cy="231.05" rx="3.01128" ry="3.04392" fill="#F24841"/>
<ellipse cx="51.6511" cy="231.05" rx="3.01128" ry="3.04392" fill="#F24841"/>
<ellipse cx="76.1716" cy="136.688" rx="3.01128" ry="3.04392" fill="#F24841"/>
<ellipse cx="76.1716" cy="155.561" rx="3.01128" ry="3.04392" fill="#F24841"/>
<ellipse cx="76.1716" cy="174.433" rx="3.01128" ry="3.04392" fill="#F24841"/>
<ellipse cx="76.1716" cy="193.305" rx="3.01128" ry="3.04392" fill="#F24841"/>
<ellipse cx="76.1716" cy="212.177" rx="3.01128" ry="3.04392" fill="#F24841"/>
<ellipse cx="76.1716" cy="231.05" rx="3.01128" ry="3.04392" fill="#F24841"/>
<ellipse cx="4.01128" cy="231.05" rx="3.01128" ry="3.04392" fill="#F24841"/>
<ellipse cx="99.9913" cy="135.989" rx="3.01128" ry="3.04392" fill="#F24841"/>
<ellipse cx="99.9913" cy="154.862" rx="3.01128" ry="3.04392" fill="#F24841"/>
<ellipse cx="99.9913" cy="173.734" rx="3.01128" ry="3.04392" fill="#F24841"/>
<ellipse cx="99.9913" cy="192.606" rx="3.01128" ry="3.04392" fill="#F24841"/>
<ellipse cx="99.9913" cy="211.478" rx="3.01128" ry="3.04392" fill="#F24841"/>
<ellipse cx="99.9913" cy="230.351" rx="3.01128" ry="3.04392" fill="#F24841"/>
<ellipse cx="124.512" cy="135.989" rx="3.01128" ry="3.04392" fill="#F24841"/>
<ellipse cx="124.512" cy="154.862" rx="3.01128" ry="3.04392" fill="#F24841"/>
<ellipse cx="124.512" cy="173.734" rx="3.01128" ry="3.04392" fill="#F24841"/>
<ellipse cx="124.512" cy="192.606" rx="3.01128" ry="3.04392" fill="#F24841"/>
<ellipse cx="124.512" cy="211.478" rx="3.01128" ry="3.04392" fill="#F24841"/>
<ellipse cx="124.512" cy="230.351" rx="3.01128" ry="3.04392" fill="#F24841"/>
<ellipse cx="27.1307" cy="249.956" rx="3.01128" ry="3.04392" fill="#F24841"/>
<ellipse cx="51.6511" cy="249.956" rx="3.01128" ry="3.04392" fill="#F24841"/>
<ellipse cx="76.1716" cy="249.956" rx="3.01128" ry="3.04392" fill="#F24841"/>
<ellipse cx="4.01128" cy="249.956" rx="3.01128" ry="3.04392" fill="#F24841"/>
<ellipse cx="99.9915" cy="249.257" rx="3.01128" ry="3.04392" fill="#F24841"/>
<ellipse cx="124.512" cy="249.257" rx="3.01128" ry="3.04392" fill="#F24841"/>
<ellipse cx="146.586" cy="135.989" rx="3.01128" ry="3.04392" fill="#F24841"/>
<ellipse cx="146.586" cy="154.862" rx="3.01128" ry="3.04392" fill="#F24841"/>
<ellipse cx="146.586" cy="173.734" rx="3.01128" ry="3.04392" fill="#F24841"/>
<ellipse cx="146.586" cy="192.606" rx="3.01128" ry="3.04392" fill="#F24841"/>
<ellipse cx="146.586" cy="211.478" rx="3.01128" ry="3.04392" fill="#F24841"/>
<ellipse cx="146.586" cy="230.351" rx="3.01128" ry="3.04392" fill="#F24841"/>
<ellipse cx="146.586" cy="249.257" rx="3.01128" ry="3.04392" fill="#F24841"/>
<ellipse cx="189.533" cy="135.743" rx="3.01128" ry="3.04392" fill="#F24841"/>
<ellipse cx="214.054" cy="135.743" rx="3.01128" ry="3.04392" fill="#F24841"/>
<ellipse cx="166.414" cy="135.743" rx="3.01128" ry="3.04392" fill="#F24841"/>
<ellipse cx="189.533" cy="154.615" rx="3.01128" ry="3.04392" fill="#F24841"/>
<ellipse cx="214.054" cy="154.615" rx="3.01128" ry="3.04392" fill="#F24841"/>
<ellipse cx="166.414" cy="154.615" rx="3.01128" ry="3.04392" fill="#F24841"/>
<ellipse cx="189.533" cy="173.488" rx="3.01128" ry="3.04392" fill="#F24841"/>
<ellipse cx="214.054" cy="173.488" rx="3.01128" ry="3.04392" fill="#F24841"/>
<ellipse cx="166.414" cy="173.488" rx="3.01128" ry="3.04392" fill="#F24841"/>
<ellipse cx="189.533" cy="192.36" rx="3.01128" ry="3.04392" fill="#F24841"/>
<ellipse cx="214.054" cy="192.36" rx="3.01128" ry="3.04392" fill="#F24841"/>
<ellipse cx="166.414" cy="192.36" rx="3.01128" ry="3.04392" fill="#F24841"/>
<ellipse cx="189.533" cy="211.232" rx="3.01128" ry="3.04392" fill="#F24841"/>
<ellipse cx="214.054" cy="211.232" rx="3.01128" ry="3.04392" fill="#F24841"/>
<ellipse cx="166.414" cy="211.232" rx="3.01128" ry="3.04392" fill="#F24841"/>
<ellipse cx="189.533" cy="230.104" rx="3.01128" ry="3.04392" fill="#F24841"/>
<ellipse cx="214.054" cy="230.104" rx="3.01128" ry="3.04392" fill="#F24841"/>
<ellipse cx="238.574" cy="135.743" rx="3.01128" ry="3.04392" fill="#F24841"/>
<ellipse cx="238.574" cy="154.615" rx="3.01128" ry="3.04392" fill="#F24841"/>
<ellipse cx="238.574" cy="173.488" rx="3.01128" ry="3.04392" fill="#F24841"/>
<ellipse cx="238.574" cy="192.36" rx="3.01128" ry="3.04392" fill="#F24841"/>
<ellipse cx="238.574" cy="211.232" rx="3.01128" ry="3.04392" fill="#F24841"/>
<ellipse cx="238.574" cy="230.104" rx="3.01128" ry="3.04392" fill="#F24841"/>
<ellipse cx="166.414" cy="230.104" rx="3.01128" ry="3.04392" fill="#F24841"/>
<ellipse cx="262.394" cy="135.044" rx="3.01128" ry="3.04392" fill="#F24841"/>
<ellipse cx="262.394" cy="153.916" rx="3.01128" ry="3.04392" fill="#F24841"/>
<ellipse cx="262.394" cy="172.789" rx="3.01128" ry="3.04392" fill="#F24841"/>
<ellipse cx="262.394" cy="191.661" rx="3.01128" ry="3.04392" fill="#F24841"/>
<ellipse cx="262.394" cy="210.533" rx="3.01128" ry="3.04392" fill="#F24841"/>
<ellipse cx="262.394" cy="229.405" rx="3.01128" ry="3.04392" fill="#F24841"/>
<ellipse cx="286.915" cy="135.044" rx="3.01128" ry="3.04392" fill="#F24841"/>
<ellipse cx="286.915" cy="153.916" rx="3.01128" ry="3.04392" fill="#F24841"/>
<ellipse cx="286.915" cy="172.789" rx="3.01128" ry="3.04392" fill="#F24841"/>
<ellipse cx="286.915" cy="191.661" rx="3.01128" ry="3.04392" fill="#F24841"/>
<ellipse cx="286.915" cy="210.533" rx="3.01128" ry="3.04392" fill="#F24841"/>
<ellipse cx="286.915" cy="229.405" rx="3.01128" ry="3.04392" fill="#F24841"/>
<ellipse cx="189.534" cy="249.011" rx="3.01128" ry="3.04392" fill="#F24841"/>
<ellipse cx="214.054" cy="249.011" rx="3.01128" ry="3.04392" fill="#F24841"/>
<ellipse cx="238.574" cy="249.011" rx="3.01128" ry="3.04392" fill="#F24841"/>
<ellipse cx="166.414" cy="249.011" rx="3.01128" ry="3.04392" fill="#F24841"/>
<ellipse cx="262.394" cy="248.312" rx="3.01128" ry="3.04392" fill="#F24841"/>
<ellipse cx="286.915" cy="248.312" rx="3.01128" ry="3.04392" fill="#F24841"/>
<ellipse cx="308.989" cy="135.044" rx="3.01128" ry="3.04392" fill="#F24841"/>
<ellipse cx="308.989" cy="153.916" rx="3.01128" ry="3.04392" fill="#F24841"/>
<ellipse cx="308.989" cy="172.789" rx="3.01128" ry="3.04392" fill="#F24841"/>
<ellipse cx="308.989" cy="191.661" rx="3.01128" ry="3.04392" fill="#F24841"/>
<ellipse cx="308.989" cy="210.533" rx="3.01128" ry="3.04392" fill="#F24841"/>
<ellipse cx="308.989" cy="229.405" rx="3.01128" ry="3.04392" fill="#F24841"/>
<ellipse cx="308.989" cy="248.312" rx="3.01128" ry="3.04392" fill="#F24841"/>
</g>
</svg>
