<?xml version="1.0" standalone="no"?>
<!DOCTYPE svg PUBLIC "-//W3C//DTD SVG 20010904//EN"
 "http://www.w3.org/TR/2001/REC-SVG-20010904/DTD/svg10.dtd">
<svg version="1.0" xmlns="http://www.w3.org/2000/svg"
 width="328.000000pt" height="58.000000pt" viewBox="0 0 328.000000 58.000000"
 preserveAspectRatio="xMidYMid meet">

<g transform="translate(0.000000,58.000000) scale(0.100000,-0.100000)"
fill="white" stroke="none">
<path d="M203 561 c-28 -9 -68 -30 -88 -45 -66 -51 -116 -151 -114 -230 l1
-41 11 33 c16 52 82 118 172 173 77 47 172 129 133 114 -11 -4 -18 -2 -18 4 0
16 -37 13 -97 -8z"/>
<path d="M377 545 c7 -35 -60 -102 -159 -157 -87 -49 -135 -91 -162 -145 -9
-18 -22 -33 -28 -33 -9 0 -9 -3 0 -12 7 -7 12 -22 12 -34 0 -12 18 -41 40 -65
31 -34 38 -38 29 -18 -16 38 5 103 50 152 21 23 43 58 50 77 14 45 57 72 109
69 51 -3 97 25 133 84 16 27 25 46 19 42 -5 -3 -10 -3 -10 2 0 17 -17 33 -51
47 -36 15 -36 15 -32 -9z"/>
<path d="M507 468 c9 -46 -5 -76 -62 -138 -30 -33 -55 -66 -55 -74 0 -8 -14
-26 -32 -41 -26 -22 -38 -26 -72 -22 -30 4 -48 0 -68 -14 -34 -25 -92 -129
-72 -129 8 0 14 -4 14 -9 0 -8 52 -31 71 -31 5 0 6 7 3 14 -3 8 3 29 13 46 17
29 56 59 205 153 33 21 70 55 85 80 15 23 31 44 35 47 4 3 3 12 -2 20 -6 8
-10 24 -10 35 0 12 -13 36 -29 55 -29 35 -29 35 -24 8z"/>
<path d="M760 412 c-24 -19 -25 -27 -28 -136 l-4 -116 31 0 30 0 3 107 c3 95
5 108 21 111 73 14 105 -58 33 -76 -17 -5 -32 -16 -34 -25 -5 -26 68 -23 102
4 34 27 37 96 6 124 -32 29 -128 33 -160 7z"/>
<path d="M974 415 c-4 -9 -4 -43 -2 -77 5 -73 28 -98 89 -98 28 0 39 -4 39
-15 0 -12 -13 -15 -60 -15 -57 0 -60 -1 -60 -25 0 -24 2 -25 74 -25 101 0 106
7 106 157 l0 113 -30 0 -30 0 0 -71 0 -70 -32 3 -33 3 -3 68 c-3 64 -4 67 -28
67 -13 0 -27 -7 -30 -15z"/>
<path d="M1232 414 c-20 -14 -22 -23 -22 -119 0 -129 4 -135 101 -135 67 0 69
1 69 25 0 22 -4 24 -57 27 l-58 3 0 80 0 80 58 3 c53 3 57 5 57 27 0 24 -3 25
-63 25 -40 0 -70 -5 -85 -16z"/>
<path d="M1420 312 c0 -144 5 -152 97 -152 80 0 108 20 108 80 0 34 -6 47 -28
66 -27 23 -85 33 -100 18 -13 -13 14 -44 38 -44 15 0 26 -7 30 -20 10 -32 -13
-51 -54 -48 l-36 3 -3 108 c-3 106 -3 107 -27 107 l-25 0 0 -118z"/>
<path d="M1604 415 c-9 -23 5 -35 42 -35 l34 0 0 -110 0 -110 30 0 30 0 0 110
0 110 40 0 c36 0 40 3 40 25 l0 25 -105 0 c-83 0 -107 -3 -111 -15z"/>
<path d="M1872 414 c-20 -14 -22 -23 -22 -119 0 -131 3 -135 111 -135 77 0 79
1 79 25 0 23 -3 24 -67 27 l-68 3 0 30 c0 30 1 30 58 33 48 3 57 6 57 22 0 16
-9 19 -57 22 -54 3 -58 5 -58 28 0 24 3 25 68 28 64 3 67 4 67 27 0 24 -2 25
-73 25 -49 0 -80 -5 -95 -16z"/>
<path d="M2137 424 c-4 -4 -7 -32 -8 -63 -1 -92 -11 -135 -37 -146 -32 -14
-30 -55 3 -55 55 0 80 49 87 175 3 38 4 40 41 43 l37 3 0 -110 0 -111 30 0 31
0 -3 133 -3 132 -85 3 c-47 1 -89 0 -93 -4z"/>
<path d="M2390 410 c-17 -17 -20 -33 -20 -113 0 -130 6 -137 116 -137 83 0 85
1 82 23 -3 20 -9 22 -70 25 l-68 3 0 34 0 35 60 0 c53 0 60 2 60 20 0 18 -7
20 -61 20 -60 0 -60 0 -57 28 3 26 6 27 66 30 58 3 62 4 62 27 0 24 -2 25 -75
25 -62 0 -79 -4 -95 -20z"/>
<path d="M2590 405 c0 -22 4 -25 40 -25 l40 0 0 -110 0 -110 30 0 30 0 0 110
0 110 40 0 c36 0 40 3 40 25 l0 25 -110 0 -110 0 0 -25z"/>
<path d="M2859 411 c-23 -18 -24 -26 -24 -121 0 -126 4 -130 117 -130 76 0 78
1 78 25 0 23 -3 24 -67 27 l-68 3 -3 33 -3 32 60 0 c54 0 61 2 61 20 0 18 -7
20 -61 20 -60 0 -60 0 -57 28 3 26 5 27 71 30 64 3 68 4 65 25 -3 20 -9 22
-74 25 -58 2 -75 -1 -95 -17z"/>
<path d="M3060 405 c0 -15 6 -25 14 -25 8 0 25 -19 39 -42 l24 -42 -26 -43
c-14 -24 -32 -43 -38 -43 -7 0 -13 -11 -13 -25 0 -48 47 -30 92 35 17 24 18
24 29 5 39 -63 99 -88 99 -40 0 15 -6 25 -15 25 -8 0 -26 20 -40 44 l-26 45
26 40 c14 23 32 41 40 41 9 0 15 10 15 25 0 19 -5 25 -21 25 -21 0 -70 -42
-82 -70 -5 -12 -9 -12 -19 4 -44 66 -98 89 -98 41z"/>
<path d="M577 281 c-9 -45 -63 -99 -167 -166 -52 -34 -102 -70 -110 -79 -8
-10 -23 -22 -35 -26 -12 -6 3 -7 41 -5 81 4 154 37 205 92 47 52 65 90 75 161
7 55 0 72 -9 23z"/>
</g>
</svg>
